<?xml version="1.0" encoding="UTF-8"?>
<!DOCTYPE svg PUBLIC "-//W3C//DTD SVG 1.1//EN" "http://www.w3.org/Graphics/SVG/1.1/DTD/svg11.dtd">
<!-- Creator: CorelDRAW 2019 (64-Bit) -->
<svg xmlns="http://www.w3.org/2000/svg" xml:space="preserve" width="6.88516in" height="3.33907in" version="1.1" style="shape-rendering:geometricPrecision; text-rendering:geometricPrecision; image-rendering:optimizeQuality; fill-rule:evenodd; clip-rule:evenodd"
viewBox="0 0 6121.83 2968.89"
 xmlns:xlink="http://www.w3.org/1999/xlink"
 xmlns:xodm="http://www.corel.com/coreldraw/odm/2003">
 <defs>
  <style type="text/css">
   <![CDATA[
    .fil0 {fill:white}
   ]]>
  </style>
 </defs>
 <g id="Capa_x0020_1">
  <metadata id="CorelCorpID_0Corel-Layer"/>
  <g id="_1201035920">
   <path class="fil0" d="M119.16 658.71c0,80.97 0.72,204.25 25.56,276.74 4.38,12.78 4.6,14.04 7.38,28.19 7.1,36.2 28.36,17.65 -11.45,57.38l-59.33 53.29c-11.41,9.32 -21.57,17.55 -32.96,26.32 -21.08,16.25 -18.08,33.14 -4.95,54.68l18.23 38.08c5.23,9.1 4.56,11.54 7.79,21.85 13.46,42.91 19.21,43.49 47.33,24.92l123.92 -89.47c15.7,8.31 21,19.39 32.95,32.25 24.44,26.29 47.82,49.68 75.74,72.44 24.66,20.11 54.14,37.68 82.98,50.39 12.44,5.49 13.78,8.63 29.37,12.12 6.3,1.41 11.17,1.98 16.9,3.85 17.43,5.69 31.4,12.12 49.95,15.25 16.69,2.82 20.7,5.53 34.74,9.72 19.36,5.77 50.43,8.18 73.7,12.25 46.4,8.1 105.08,8.08 154.92,8.08 33.84,0 61.6,-6.58 89.26,-11.5 15.17,-2.7 28.59,-3.48 43.42,-6.97l128.8 -46.07c20.54,-6.29 114.4,-57.97 133.17,-71.33l58.93 -41.84c5.95,-3.87 9.74,-5.38 16.41,-10.26 19.86,-14.52 38.09,-29.38 59.56,-41.21 37.01,-20.4 47.49,-22.16 86.02,-7.03 47.48,18.65 35.77,15.17 75.1,37.52 42.5,24.14 80.3,56.06 120.81,83.68l65.32 44.34c20.11,14.45 86.11,44.58 108.17,51.88 13,4.31 22.32,4.72 36.21,8.25 40.48,10.28 39.3,7.49 78.55,-1.16 14.74,-3.24 29.02,-4.25 41.75,-8.64l37.94 -12.45c9.24,-2.14 8.63,-2.32 16.73,-6.98 21.87,-12.57 48,-18.33 70.37,-30.4 7.7,-4.16 8.99,-6.15 16.84,-9.83l123.54 -78c10.8,-8.76 16.86,-14.66 26.85,-23.53 5.9,-5.24 7.35,-5.2 13.29,-10.42 22.45,-19.77 42.58,-42.76 62.18,-65.26 32.48,-37.29 42.34,-39.19 91.22,-39.19 30.45,0 32.6,66.38 32.6,85.95 0,60.03 -11.85,132.34 -11.85,192.64 0,20.85 3.37,35.74 5.68,53.59 2.54,19.57 8.58,28.68 17.57,41.71 36.09,52.35 92.22,41.04 148.64,41.04 14.95,0 33.06,-2.28 44.2,-6.19 5.6,-1.96 12.46,-5.51 17.63,-9.05l302.7 -275.24c33.07,-23.23 85.17,-59.25 127.46,-59.25 22.3,0 53.22,10.6 72.94,18.94l116.75 69.97c7.79,5.53 9.97,7.33 19.48,13.12l37.64 24.6c18.62,13.6 77.94,49.99 100.57,56.51 19.42,5.59 24.98,13.36 45.08,17.16 57.51,10.85 34.45,18.67 102.2,3.95 16.01,-3.48 33.14,-7.3 47.64,-14.6 8.48,-4.27 16.32,-5.17 23.63,-8.97l55.6 -36.28c6.29,-5.09 11.28,-9.4 17.77,-14.84 42.86,-35.89 26.82,-43.23 72.74,3.1 11.59,11.7 25.09,23.18 38.19,32.93 6.11,4.55 12,9.48 18.69,13.91 36.71,24.29 75.9,43.29 117.66,57.21 85.83,28.59 189.97,38.9 279.96,25.91 27.94,-4.03 49.95,-10.15 75.43,-13.49 28.74,-3.77 43.75,-11.22 72.24,-16.67 17.73,-3.39 19.89,-5.39 33.9,-10.56 10.94,-4.04 23.26,-5.05 34.84,-9.62 13.24,-5.21 17.05,-9.58 31.54,-12.92 21.84,-5.03 117.08,-47.45 138.64,-59.94 6.61,-3.83 8.25,-3.97 16.42,-7.29 12.57,-5.11 18.09,-10.81 29.8,-14.65 24.66,-8.09 34.88,-24.93 55.31,0.2 7.56,9.3 6.06,15.24 12.23,26.3 12.87,23.08 24.28,48.23 40.2,69.46l12.14 14.53c3.23,3.48 2.56,2.63 5.58,6.28 20.99,25.35 62.37,48.87 97.91,50.27 87.9,3.48 58.14,-0.85 123.88,-18.36 23.54,-6.27 76.97,-37.73 98.29,-49.9l153.34 -104.51c31.04,-24.26 76.29,-58.89 109.62,-77.1 4.71,-2.57 6.97,-3.16 11.5,-6.29 35.41,-24.47 46.95,-24.53 83.72,-1.13 27.48,17.5 51.15,36.66 73.86,59.51l110.06 91.48c8.02,4.79 14.41,4.43 22.82,9.78 24.79,15.78 20.98,8.7 48.37,16.83 43.56,12.93 95.6,3.53 138.41,-7.47 14.23,-3.65 20.1,-9.8 31.63,-12.83l31.76 -12.7c10.68,-5.59 20.07,-6.88 30.91,-13.55l28.07 -16.39c27.83,-21.12 38.89,-31.33 38.89,-67.81 0,-16.45 -13.66,-43.52 -20.72,-53.38 -34.24,-47.81 -26.98,-50.36 -65.31,-26.72 -39.23,24.2 -89.84,32.67 -136.26,32.67 -23.33,0 -30.34,-5.52 -49.66,-9.62 -33.52,-7.11 -66.46,-37.78 -78.73,-69.46 -15.53,-40.08 -9.97,-75.43 -36.3,-111.89 -31.18,-43.18 -103.95,-43.12 -151.18,-33.02 -26.81,5.73 -62.36,20.66 -86.31,32.24 -18.03,8.72 -56.41,36.67 -73.25,48.27 -7.27,5.01 -7.17,5.83 -13.17,10.55l-121.02 95.33c-10.87,8.85 -18.44,12.4 -29.66,20.72l-63.02 34.78c-11.35,5.95 -23.17,6.6 -35.68,11.74 -11.09,4.55 -25.75,8.89 -41.49,8.89 -18.47,0 -35.6,-45.75 -8.07,-79.19 22.71,-27.58 50.14,-54.22 77.09,-77.03l150.83 -107.01c5.54,-3.62 9.45,-5.37 14.68,-9.03l198.91 -138.96c28.83,-26.82 90.77,-79.98 71.4,-123.2 -6.08,-13.58 -16.93,-15.2 -30.61,-19.86 -48.77,-16.63 -125.94,-5.46 -172.89,16.89 -15.55,7.4 -49.3,17.57 -70.76,30.01l-87.94 42.46c-17.45,6.67 -31.24,20.35 -46.88,30.18l-278.62 210.4c-42.59,34.83 -90.07,64.23 -133.9,97.28l-45.81 31.25c-42.61,26.25 -70.21,42.94 -118.83,61.96 -7.15,2.8 -11.1,3.42 -17.05,6.66 -7.55,4.11 -8.25,6.29 -16.89,9.79l-158.77 48.69c-16.76,3.61 -30.34,2.86 -47.92,5.43 -15.04,2.2 -27.95,4.23 -43.87,6.51 -16.99,2.44 -34.37,0.3 -51.8,1.74 -52.05,4.31 -156.78,-16.72 -192.61,-60.18 -28.33,-34.36 -46.23,-38.74 67.23,-115.78l47.42 -35.57c32.1,-21.79 61.78,-49.62 92.01,-73.96l81.2 -84.78c9.71,-11.73 25.93,-40.78 25.93,-57.05 0,-34.18 -1.39,-52.04 -30.88,-75.81l-8.7 -6.12c-14.67,-8.71 -21.78,-14.77 -39.23,-20.05 -26.57,-8.05 -15.62,-10.77 -56.65,-17.44 -67.12,-10.91 -92.24,-6.83 -160.44,1.36 -43.71,5.25 -80.41,24.92 -115.45,35.71 -7.19,2.21 -9.26,3.57 -16,7.71l-81.61 45.83c-40.65,29.17 -73.83,55.24 -104.99,93.58 -8.16,10.05 -14.18,17.4 -21.22,29.16 -4.73,7.9 -5.25,7.34 -9.69,14.03 -4.96,7.47 -4.88,9.7 -8.4,18.27 -14.51,35.26 -22.48,47.92 -22.48,93.11 0,72.49 46.6,68.46 -46.79,119.18 -44.02,23.91 -47.16,6.58 -85.31,-4.86 -14.95,-4.49 -27.73,-13.32 -41.81,-20.43 -48.03,-24.27 -108.76,-82.08 -153.83,-115.87 -23.92,-17.93 -48.38,-37.12 -75.66,-48.82 -20.12,-8.64 -11.64,-8.46 -43.48,-18.76 -11.22,-3.63 -16.79,-8.18 -31.05,-10.44 -35.11,-5.57 -76.31,-5.38 -111.45,-0.36l-62.05 20.93c-29.35,17.37 -36.7,19.84 -65.35,41.35 -5.74,4.32 -8.3,4.36 -14.41,9.3 -26.64,21.54 -54.84,45.47 -77.54,70.65l-100.99 91.66c-6,3.86 -6.01,4.75 -11.59,9.16 -4.31,3.41 -8.07,5.53 -12.24,8.5 -56.28,40.01 -42.05,-17.92 -38.31,-59.06 1.39,-15.26 6.13,-32.47 7.86,-45.49l9.08 -118.05 -6.56 -72.6c-1.81,-8.32 -4.76,-13.11 -7.67,-19.01 -3.02,-6.14 -4.82,-12.3 -8.01,-18.66 -8.31,-16.6 -33.62,-45.74 -48.43,-55.3 -13.02,-8.4 -18.15,-12.74 -35.07,-18.28 -41.48,-13.58 -46.58,-11.99 -86.19,-11.38 -80.55,1.22 -117.07,29.77 -167.74,72.37 -0.66,0.55 -2.56,2.15 -3.22,2.71 -3.75,3.21 -4.36,3.72 -7.77,7.04l-87.43 93.37c-4.54,5.15 -8.37,8.37 -13.36,13.32l-100.7 109.73c-25.72,25.99 -70.27,62.69 -103.97,79.78 -52.97,26.87 -91.55,39.48 -153.17,39.48 -29.88,0 -39.94,-7.86 -62.63,-17.39 -20.59,-8.65 -47.49,-27.53 -62.62,-44.07 -6.08,-6.65 -6.34,-9.28 -13.25,-16.39 -5.1,-5.25 -8.73,-7.94 -13.15,-13.52 -4.25,-5.37 -6.86,-10.28 -10.91,-15.77 -8.13,-11.02 -15.9,-21.33 -23.6,-32.71 -37.7,-55.67 -70.49,-103.81 -127.48,-142.22 -5.42,-3.65 -31.49,-15.27 -38.61,-17.7 -33.66,-11.46 -126.91,-26.11 -158.34,2.57l-60.49 49.17c-6.41,5.39 -7.34,6.63 -14.49,12.19 -11.11,8.63 -17.08,17.5 -27.48,25.87 -11.1,8.94 -20.21,15.4 -31.84,24.47l-89.68 73.33c-5.46,4.27 -10.25,6.69 -15.7,10.98 -6.93,5.44 -8.33,7.69 -16.74,12.9l-48.97 31.05c-23.76,12.79 -46.45,28.7 -72.44,37.22 -8.22,2.69 -11.75,4.91 -20.42,9.21 -13.89,6.89 -26.27,7.91 -39.5,13.84 -14.82,6.65 -68.04,18.58 -87.65,22.01 -61.06,10.69 -120.21,-0.26 -178.5,-13.84 -11.42,-2.66 -14.82,-5.81 -25.52,-10.04 -10.67,-4.21 -17.23,-3.68 -27.77,-7.8l-48.67 -25.42c-5.87,-3.76 -6.25,-3.43 -11.7,-6.09 -8.26,-4.03 -4.01,-1.62 -11.1,-6.68 -21.54,-15.39 -41.38,-30.21 -60.39,-49.26 -13.82,-13.84 -23.21,-23.39 -35.26,-38.83 -5.87,-7.52 -8.66,-12.63 -15.11,-20.46 -15.94,-19.35 -21.05,-33.81 -1.82,-50.69 5.98,-5.24 9.36,-8.71 15.15,-14.49 5.62,-5.61 9.7,-9.08 14.52,-15.12l40.15 -48.76c13.47,-16.5 26.66,-33.16 36.51,-52.4l33.41 -55.51c4.06,-8.12 4.02,-11.96 9.23,-20.41 15.86,-25.72 25.23,-52.74 38.41,-80.14l16.72 -42.56c12.02,-26.37 26.28,-84.05 35.28,-112.91l19.84 -98.71c7.08,-50.07 7.11,-98.3 7.11,-149.97 0,-27.02 -6.82,-92.76 -14.44,-113 -4.03,-10.68 -4.54,-9.35 -7.12,-22.52 -7.44,-37.91 -33.04,-88.38 -63.12,-111.74 -23.78,-18.47 -42.34,-29.91 -72.97,-39.65 -29.94,-9.53 -84.2,-10.28 -113,1.46 -8.44,3.44 -12.29,4.97 -21.66,7.98 -60.48,19.41 -106.76,77.09 -142.45,127.25l-73.94 163.16c-4.46,16.94 -11.98,30.66 -15.12,47.12l-36.84 188.41c-4.93,46.17 -11.36,61.41 -11.36,116.08zm1170.69 -133.37c5.89,25.28 59.3,44.46 82.99,44.46 37,0 57.5,-6.03 87.73,-13.04 14.98,-3.48 30.24,-4.65 43.59,-6.8 19.28,-3.1 26.32,-6.56 42.86,-10.49 12.7,-3.01 28.32,-3.77 43.45,-6.93l81.11 -19.66c6.79,-2.11 10.46,-4.64 19.62,-7.05 9.57,-2.52 13.72,-2.52 22.58,-4.1 15.71,-2.81 22.55,-8.5 37.31,-13.07 22.75,-7.04 10.31,-0.56 37.94,-12.45l73.34 -30.38c29.3,-19.69 18.31,-5.63 62.7,-41.03 25.03,-19.97 59.32,-56.04 35.63,-87.94 -11.79,-15.87 -14.68,-14.63 -33.66,-25.62l-66.32 -19.62c-27.62,-4.79 -53.77,-4.12 -81.84,-4.12 -11.2,0 -35.9,37.41 -45.14,46.74 -8.45,8.53 -15.62,14.92 -23.68,23.73l-35.32 32.85c-5.31,4.32 -6.69,6.82 -12.73,10.98 -14.93,10.28 -43.32,30.22 -58.37,36.47 -18.87,7.83 -21.87,12.43 -31.36,16.06l-140.5 46.22c-13.11,4.24 -22.64,4.38 -36.35,8.1 -17.03,4.63 -92.66,28.05 -105.57,36.69zm-975.08 157.08c0,26.74 5.04,106.64 31.61,119.83 13.39,6.65 23.4,1.21 32.99,-7.81 19.46,-18.31 48.43,-70.35 56.2,-94.96 5.81,-18.41 11.57,-20.41 15.33,-38.02l31.55 -92.93c2.06,-8.87 2.18,-14.87 4.12,-22.55 3.55,-14.08 8.39,-26.2 12.06,-41.29l16.48 -84.29c3.96,-24.88 17.97,-145.28 -7.1,-168.33 -36.63,-33.69 -77.8,19.91 -94.5,48.95 -4.48,7.78 -4.61,5.84 -8.55,12.2l-35.66 79.93c-4.14,14.69 -4.81,16.87 -10.05,28.48 -7.52,16.69 -9.74,38.25 -16.27,57.82 -4.35,13.04 -5.68,15.46 -7.66,30.87 -9.73,75.48 -20.56,58.93 -20.56,172.09zm3589.14 302.31c0,30.07 3.31,29.64 32.6,29.64l58.12 -21.91c17.29,-11.47 30.58,-16.79 49.35,-33.63 13.75,-12.34 31.64,-26.47 39.93,-43.13 24.36,-48.91 -27.02,-64.71 -79.36,-34.82 -27.34,15.62 -57.02,33.36 -77.45,58.89 -5.43,6.79 -23.19,35.34 -23.19,44.97z"/>
   <path class="fil0" d="M80.63 1864.97l0 1072.89c0,11.63 14.66,14.82 26.67,14.82l349.7 -2.99c24.49,-0.63 33.73,-2.91 54.63,-7.61 18.12,-4.07 34.62,-5.68 51.09,-11.15l105.75 -48.37c9.72,-5.59 8.78,-7.58 18.79,-13.81 10.53,-6.55 8.01,-5.15 16.51,-13.13 7.19,-6.75 10.52,-7.74 17.83,-14.77 31.63,-30.45 62.16,-67.72 83.13,-106.55 5.47,-10.12 7.11,-8.52 11.77,-17.87 4.69,-9.42 4.8,-12.85 10.46,-22.14 9.69,-15.92 21.59,-49.21 27.17,-67.67 3.26,-10.77 6.07,-13.06 9.38,-23.23 12.76,-39.25 23.27,-119.06 23.27,-166.41 0,-52.88 2.39,-130.99 -9.88,-176.84 -4.77,-17.82 -7.22,-33.41 -11.03,-51.21 -3.42,-16.01 -10.29,-28.83 -15.25,-46.99 -5.33,-19.49 -16.98,-44.11 -27.04,-61.87l-21.75 -40.49c-5.4,-10.81 -7.39,-11.73 -12.66,-19.94 -29.21,-45.53 -94.73,-115.77 -139.1,-136.53 -25.9,-12.12 -16.84,-12.79 -41.9,-20.34 -12.93,-3.89 -10.12,-5.37 -22.49,-10.11 -47.74,-18.27 -108.92,-22.5 -164.22,-22.5l-326.01 0c-6.91,0 -14.82,7.91 -14.82,14.82zm-80.02 -130.41c0,21 -4.68,53.35 11.85,53.35l6096.5 0c19.56,0 11.78,-58.72 8.89,-71.13 -23.96,-6.36 -11.67,-1.1 -29.91,-0.59 -9.68,0.27 -8.29,-1.65 -20.44,-2.37 -56.5,-3.34 -269.67,-0.01 -331.98,-0.01l-5694.6 1.68c-13.6,1.32 -40.32,-10.61 -40.32,19.07zm3073.44 403.07c0,50.57 2.29,79.93 14.08,128.19 2.88,11.8 5.53,13.98 9.62,22.98 3.25,7.16 4.56,13.69 7.97,21.67 17.36,40.67 50.67,80.83 88.13,104.52l30.96 16.46c3.51,1.49 8.29,2.6 13.45,4.33 13.47,4.53 11.35,6.01 21.62,10.98 9.7,4.7 14.94,3.85 25.73,6.87 10.7,3 14.41,6.62 22.92,9.69l243.68 73.45c10.91,4.62 11.89,7.45 19.98,12.62 13.45,8.58 24.74,18.36 32.45,32.75 4.2,7.85 8.47,13.22 11.5,21.1 20.77,54.11 10.02,128.42 -42.46,164.4 -4.6,3.16 -6.75,3.9 -10.96,6.83 -5.7,3.97 -3.1,3.37 -10.62,7.17 -46.64,23.54 -89.59,22.84 -143.13,22.84 -59.16,0 -126.09,-17.17 -166.75,-61.46l-20.05 -27.37c-2.7,-5.26 -4.52,-9.94 -7.88,-15.83 -4.48,-7.88 -5.29,-6.5 -8.54,-15.17 -19.21,-51.32 10.35,-42.14 -124.03,-14.77 -37.95,7.73 -66.14,12.99 -53.89,38.57 5.15,10.75 9.51,32.38 15.64,43.64 3.7,6.79 3.79,5.63 6.34,11.44l37.36 63.41c17.78,22.76 36.84,41.63 59.67,58.88l34.33 21.98c18.68,13.12 75.16,36.51 97.27,42.03 77.02,19.21 105.96,17.66 186.84,17.66 30.42,0 49.99,-6 74.06,-11.89 11.24,-2.75 25.47,-3.9 37.19,-7.26 25.84,-7.41 78.69,-32.09 101.27,-49.89 45.29,-35.71 90.43,-76.55 110.16,-132.87 4.62,-13.2 9.65,-16.13 12.99,-28.5 15.69,-58.1 25.35,-130.17 8.54,-190.85 -4.41,-15.92 -7.56,-37.31 -14.19,-51.02 -26.61,-54.98 -18.48,-48.78 -60.21,-96.87 -6.85,-7.89 -7.99,-8.92 -17.03,-15.57 -25.01,-18.43 -50.14,-37.06 -80.49,-46.96 -18.49,-6.03 -26.36,-13.05 -47.58,-17.63 -17.76,-3.83 -27.63,-10.92 -47.34,-14.89l-151.05 -41.59c-14.31,-5.49 -32.88,-9.19 -45.49,-16.75l-40.94 -24.27c-36.08,-27.49 -47.36,-58.62 -47.36,-103.79 0,-12.25 11.98,-46.13 17.25,-53.88 50.2,-73.71 133.37,-75.22 215.72,-60.55 17.11,3.05 14.83,5.1 26.87,11.66 28.49,15.51 36.01,17.25 55.98,41.83l22.52 36.76c18.01,35.68 4.3,26.81 61.7,12.26 14.88,-3.78 91.92,-22.13 102.42,-27.99 19.35,-10.79 12.51,-28.73 5.7,-44.43 -5.23,-12.05 -6.81,-12.76 -12.05,-26.48 -4.6,-12.06 -8.2,-13.04 -14.72,-23.81 -14.19,-23.44 -32.64,-44.18 -54.16,-61.42l-97.88 -56.24c-11.31,-4.48 -12.18,-7.94 -26.92,-11.61 -34.06,-8.48 -58.77,-17.28 -98.03,-17.56 -16.55,-0.12 -18.98,-3.1 -35.45,-3.28 -22.75,-0.25 -88.76,6.64 -104.14,11.68 -20.66,6.78 -40.28,10.61 -57.87,19.19l-73.84 41.75c-12.75,8.72 -24.26,22.17 -35.03,33.14 -20.84,21.22 -39.41,45.46 -51,73.48 -15.61,37.73 -18.79,44.68 -26.64,88.95 -2.52,14.18 -4.2,21.76 -4.2,37.3zm1550.06 204.5c0,19.9 82.6,25.74 97.57,26.91 12.88,1 25.62,5.4 38.76,5.69 25.7,-38.39 7.67,-79.98 104.12,-115.2 26.33,-9.61 90.69,-9.82 120.47,-5.66 22.82,3.18 67.6,24.55 82.45,47.95l13.93 30.52c8.19,20.66 3.88,55.46 6.93,82.34 3,26.45 -22.46,22.29 -58.12,22.33 -44.19,0.05 -82.66,0.28 -123.3,7.14l-76.04 12.88c-20.29,5.58 -48.03,13.41 -66.46,22.45l-44.09 21.12c-9.51,5.14 -6.27,3.24 -14.57,9.14 -12.01,8.54 -14.24,10.48 -24.67,19.78 -73.19,65.28 -87.92,130.18 -77.35,238.97 2.66,27.35 24.99,80.06 42.33,102.89 36.25,47.71 63.62,67.55 118.42,86.08 37.11,12.54 108.66,15.8 146.77,3.76 10.72,-3.39 25.56,-7.46 36.33,-11.09 16.07,-5.41 43.3,-23.57 56.57,-35.31 26.24,-23.18 44.49,-44.87 61,-75.33 10.17,-18.76 -0.58,-25.67 21.27,-26.15l14.44 83.37c11.27,66.38 -8.99,55.93 154.5,55.93 7.12,0 8.71,-4.8 14.82,-8.89 -2.79,-33.52 -16.81,-32.69 -17.67,-118.66 -0.15,-15.31 -2.38,-16.29 -3.09,-29.51 -0.6,-11.12 0.01,-24.23 0.01,-35.58l0 -346.76c0,-23.44 0.41,-47.13 -2.08,-66.08 -1.47,-11.18 -2.1,-20.75 -3.3,-29.31l-11.43 -56.74c-3.79,-8.76 -7.38,-15.06 -11.78,-23.79 -26.75,-53.18 -81.4,-92.93 -139.1,-103.93 -36.56,-6.97 -34.07,-13.57 -93.13,-13.57 -44.76,0 -86.55,-2.8 -129.7,6.63 -8.2,1.79 -15.89,3.99 -26.59,6.01 -7.74,1.46 -18.9,2.47 -27.19,5.42 -7.21,2.57 -12.13,6.17 -20.1,9.54 -8.94,3.79 -17.32,4.31 -24.52,8.08 -7.22,3.78 -9.04,7.38 -19.86,12.74 -28.74,14.25 -64.29,52.78 -81.54,78.5l-35.05 95.35zm-2329.53 2.96c20.23,13.55 20.72,12.9 57.53,19.53l53.24 6.03c25.42,6.29 24.34,13.19 45.88,-40.82 6.21,-15.57 17.91,-32.44 31.28,-42.82 31.73,-24.63 73.78,-36.97 114.38,-36.97l68.06 6.23c10.99,2.74 13.86,5.76 25.69,9.87 11.77,4.09 16.88,6.63 25.27,13.26 20.84,16.48 13.67,11.15 25.03,28.32 19.62,29.64 15.99,73.17 15.99,114.41 0,27.57 -100.56,8.53 -169.4,20.28l-136.73 29.24 -49.68 24.42c-10.89,6.8 -18.87,9.24 -29.96,17.46 -19.85,14.72 -34.06,25.6 -49.07,45.77 -7.14,9.59 -14.08,17.13 -19.43,27.99 -1.63,3.3 -1.97,4.66 -3.71,8.15 -2.14,4.29 -2.22,4.08 -4.23,7.62 -10.87,19.11 -23.86,75.99 -23.86,97.66 0,39.01 3.24,94.07 20.88,127.31 20.42,38.49 34.7,63.85 70.97,92.04 39.33,30.57 37.37,22.5 75.01,37.62 35.36,14.2 68.53,9.78 111.74,9.78 41.1,0 93.25,-27.28 127.92,-52.87 16.68,-12.31 50.05,-54.89 58.35,-75.02 8.13,-19.74 6.93,-15 24.16,-23.26 1.95,23.44 6.59,53.04 10.52,78.4 2.4,15.51 4.04,22.84 8.24,36.21 10.3,32.73 24.24,17.56 50.1,20.8l61.9 -0.2c15.86,-2.15 43.44,6.22 48.01,-8.37l-15.33 -88.74c-11.99,-118.17 6.55,-479.71 -10.01,-556.07 -11.01,-50.79 -39.12,-102.96 -82.42,-130.97 -16.59,-10.73 -25.29,-16.72 -45.99,-25.14 -27.12,-11.03 -88.95,-22.4 -119.86,-22.4 -38.64,0 -92.58,-1.82 -128.29,5.08 -24.15,4.66 -56.6,10.71 -77.18,20.63 -10.32,4.97 -14.05,4.26 -24.42,8.18 -14.87,5.63 -61.55,40.77 -76.09,57.28l-28.34 36.86c-16.83,25.08 -23.44,41.68 -29.04,68.77 -2.27,10.98 -4.82,18.62 -7.11,28.46zm-1274.42 -5.93c0,17.33 39.42,22.27 60.52,25.43 14.75,2.21 22.12,3.11 37.03,4.46 12.84,1.16 25.81,5.38 38.78,5.67 18.52,-27.66 9.24,-39.23 35.02,-71.68 20.28,-25.52 42.33,-32.42 69.51,-43.12 9.73,-3.83 16.64,-6.22 28.85,-6.71 48.27,-1.96 11.32,-3.9 62.54,-0.35 46.42,3.22 16.4,-4.55 59.38,11.77 28.71,10.91 45.47,21.45 59.9,52.72 14.14,30.64 19.22,80.53 10.81,116.63 -8.97,2.09 -25.35,2.03 -32.14,2.08l-211.77 17.78 -60.02 17.04 -76.77 38.82c-37.18,27.8 -51.39,43.61 -75.78,81.3 -6.92,10.7 -7.08,15.09 -11.4,27.13 -10.12,28.21 -11.79,19.49 -15,62.06 -3.3,43.87 -5.36,92.65 13.59,134.16 4.65,10.17 5.88,18.07 11.11,27.42 26.43,47.2 67.78,93.27 120.63,110.55 61.28,20.03 55.86,15.15 124.15,15.15 22.55,0 52.97,-10.06 74.55,-17.32 20.92,-7.04 38.69,-22.28 57.08,-34.8 17.82,-12.13 53.17,-56.44 62.55,-76.75 7.97,-17.26 -0.24,-23.68 19.21,-28.22 7.47,32.05 4.4,3.1 5.91,41.51 0.56,14.32 5.87,28.63 8.97,41.41 8.86,36.51 -4.24,59.34 41.43,59.34 7.26,0 11.44,-1.66 15.19,-1.75l67.8 1.75c21.15,0 27.07,-1.88 44.46,-5.93 0,-19.59 -7.22,-29.02 -11.93,-56.24 -12.94,-74.85 -8.82,-396.82 -8.82,-474.28 0,-36.07 -3.72,-126.52 -15.7,-153.23 -19.51,-43.51 -13.87,-31.54 -41.03,-65.67 -10.58,-13.3 -38.43,-38.29 -55.9,-44.87l-23.83 -11.73c-20.24,-10.05 -92.45,-20.87 -118.43,-20.87 -112.71,0 -68.15,-5.17 -164.27,13.56 -44.12,8.6 -15.54,2.24 -47.38,14.86 -51.24,20.31 -93.45,52.04 -123.19,99.1 -23.42,37.05 -18.42,43.67 -27.15,67.7 -1.71,4.71 -8.49,18.43 -8.49,24.11zm4579.04 -47.42c-5.17,-62.07 -0.43,-87.32 -2.7,-136.6 -0.81,-17.53 -9.8,-20.48 -26.94,-20.48l-103.73 0c-32.46,0 -21.49,28.29 -22.15,37.43 -5.34,74.18 -1.56,297.42 -1.56,374.53 0,103.75 -2.88,251.24 0.01,352.89 0.53,18.58 -1.41,32.39 2.96,41.3 0.25,0.5 -2.88,11.85 26.67,11.85 7.26,0 11.44,-1.66 15.19,-1.75 7.91,-0.19 6.06,1.75 17.42,1.75 26.93,0 83.97,3.56 103.73,-5.93 6.55,-24.71 -0.07,-11.03 0.96,-28.98 5.82,-101.25 -2.87,-387.63 3.18,-429.22 2.23,-15.32 5.07,-31.16 6.85,-43.54 5.95,-41.25 14.21,-58.22 33.62,-90.86 8.35,-14.05 23.23,-31.39 35.77,-41.29 34.55,-27.28 46.5,-29.99 88.56,-29.99 52.22,0 86.21,48 97.22,92.46 13.78,55.67 9.48,120.51 9.48,183.17 0,128.43 0,256.86 0,385.29 13.68,9.16 11.54,8.64 32.96,8.07 47.84,-1.27 83.68,6.39 133.01,-5.1 0,-173.87 -0.01,-347.75 0,-521.62 0,-34.97 -8.12,-117.4 -17.34,-145.67 -21.06,-64.55 -55.42,-110.23 -119.86,-140.95l-49.36 -15.85c-38.39,-7.21 -105.78,-2.74 -135.62,18.81 -24.94,18.02 -39.43,27.77 -59.73,52.89 -18.41,22.77 -35.36,44.06 -46.57,71.98 -3.98,9.93 -3.65,13.78 -14.4,21.16 -4.47,3.07 -1.71,2.1 -7.61,4.24zm-5334.8 -263.78l0 743.91c0,6.91 7.91,14.82 14.82,14.82 57.69,0 164.93,7.74 212.53,-12.72 11.84,-5.09 20.38,-4.75 30.46,-11.03 6.07,-3.78 5.85,-5.11 12.13,-8.62l37.47 -24.77c34.63,-29.1 52.09,-56.18 73.71,-92.26 33.68,-56.23 51.6,-178.26 51.6,-238.85 0,-22.17 -3.16,-53.26 -6.09,-73.93 -3.15,-22.23 -5.74,-52.78 -11.02,-71.96 -9.52,-34.59 -21.93,-71.87 -39.81,-102.45 -10.56,-18.07 -0.28,-6.27 -21.88,-37.4 -6.36,-9.17 -11.4,-14.16 -18.15,-23.34 -18.22,-24.8 -66.54,-61.84 -96.23,-69.74 -74.31,-19.76 -139.64,-12.39 -224.71,-12.39 -9.58,0 -14.82,10.76 -14.82,20.75zm3929.97 939.52c73.08,0 51.94,4.6 115.56,-11.88 9.25,-2.39 18.94,-3.81 27.6,-7.96l54.13 -31.82c16.11,-11.16 48.39,-42.92 59.66,-61.86 5.34,-8.97 9.75,-13.41 14.46,-21.11l32.7 -71.03c4.17,-10.48 4.66,-17.25 7.3,-28.26 17.03,-71.03 36.55,-60.21 -40.88,-72.17 -122.81,-18.97 -77.62,-4.72 -101.75,42.17 -15.23,29.6 -2.09,12.22 -25.89,48.21 -30.17,45.62 -89.94,64.47 -144.11,48 -12.58,-3.83 -42.7,-25.88 -52.62,-39.26l-24.49 -43.68c-27.68,-66.58 -28.38,-118.28 -28.38,-190.94 0,-40 12.21,-108.22 27.57,-144.33 13.08,-30.76 4.14,-26.45 34.63,-66.14 5.07,-6.6 5.7,-7.82 13.11,-13.56 76.65,-59.43 168.78,-26.03 192.55,39.16 14.17,38.87 4.35,-3.55 17.82,59.24 3.4,15.87 6.68,18.94 22.55,18.94 22.87,0 42.6,-3.75 63.51,-7.63 11.46,-2.12 20.76,-5.02 29.2,-6.37l31.77 -6.75 -17.96 -82.81c-3.78,-16 -24.18,-55.43 -32.37,-71.36 -5.12,-9.95 -6.89,-10.26 -13.12,-19.48l-10.87 -15.8c-37.8,-43.9 -40.01,-38.75 -81.47,-63.76 -23.98,-14.46 -77.31,-25.39 -110.95,-25.39 -62.27,0 -105.93,4.19 -161.05,34.56 -14.23,7.84 -51.81,40.22 -63.9,51.69 -0.44,0.42 -1.08,1.03 -1.51,1.45l-38.29 47.66c-3.36,5.86 -3.79,7.98 -7.48,13.26 -18.58,26.61 -40.29,78.36 -47.84,109.24 -10.95,44.82 -8.83,8.08 -15.11,73.81 -2.41,25.22 -5.71,57.86 -8.3,83.81 -1.97,19.68 11.08,138.47 17.83,159.13 3.7,11.31 6.25,20.84 9.66,34.8l17.59 47.61c7.05,15.84 14.47,32.93 24.52,46.61 8.1,11.02 13.58,27.55 36.06,52.85 17.37,19.54 49.53,49.87 73.11,60.26 7.96,3.5 7.09,2.52 14.12,6.63 16.41,9.58 74.16,24.27 91.32,24.27zm-2302.86 -1046.21c-14.94,22.3 -5.81,16.89 -9.7,46.61l-10.24 108.32c-2.86,20.87 0.76,36.03 -3.77,55.5 -17.8,8.54 -61.14,2.96 -91.87,2.96 -12.2,18.22 -5.93,4.79 -5.93,41.49 0,14.95 -2.69,7.66 -1.27,21.98 7.06,71 -14.22,88.72 26.23,83 2.98,-0.42 47.95,-0.95 54.01,2.62 14.49,8.53 9.95,36.31 9.94,58.36l-0.04 373.48c-0.29,51.29 8.12,132.4 39.37,174.03 28.15,37.5 51.7,51.4 92.37,67.67 43.4,17.36 108.44,12.99 152.81,1.28 49.5,-13.06 38.54,3.3 38.54,-130.4 0,-10.88 -4.59,-14.32 -8.89,-20.74 -25.43,0 -46.64,0.8 -68.18,-2.95 -48.85,-8.52 -58.97,-12.24 -77.91,-64.35 -5.65,-15.54 -8.03,-42.58 -8.03,-63.1l0 -376.4c0,-29.12 26.95,-18.49 40.24,-19.03l76 -0.76c36.75,-2.01 31.95,28.59 31.95,-134.33 0,-28.27 -130.03,0.38 -145.23,-14.82 -8.75,-18.23 -3.01,-142.72 -2.96,-174.87 0.11,-72.18 3.7,-35.56 -127.44,-35.56zm-723.16 764.66c0,41.65 -0.24,67.27 25.7,98.78 5.26,6.39 7.41,10.75 13.6,16.04 45.52,38.84 154.48,37.6 205.98,-14.76 10.83,-11.01 28.59,-30.16 36.12,-43.9 3.77,-6.87 3.92,-10.56 8.45,-18.22 28.72,-48.48 27.27,-117.71 27.27,-174.27 0,-19.52 -24.65,-11.8 -41.42,-11.8 -43.75,0 -114.84,10.34 -154.99,25.82 -26.34,10.16 -55.08,18.52 -80.47,44.01 -0.43,0.43 -1.02,1.08 -1.44,1.52 -18.01,18.97 -38.8,49.63 -38.8,76.79zm3603.96 0c0,33.1 -3.23,54.02 15.33,85.43 6.27,10.61 16.76,23.22 26.09,30.23 22.98,17.26 15.2,14.14 37.71,18.61 14.61,2.9 27.88,7.99 48.32,7.99 19.05,0 68.41,-8.67 79.5,-15.34 5.75,-3.46 8.03,-5.78 14.42,-9.29 37.09,-20.36 48.49,-46.41 67.41,-77.81 4.21,-6.99 5.28,-6.84 8.08,-15.64l11.13 -36.29c9.4,-29.74 6.18,-92.41 6.18,-127.2 0,-16.05 -27.82,-8.74 -44.45,-8.89 -42.1,-0.38 -137.62,17.35 -174.42,33.05 -6.51,2.78 -12.05,7.86 -18.42,11.22 -8.53,4.51 -10.67,3.72 -19.4,10.24 -5.36,4.01 -11.52,8.99 -16.49,13.15 -6.05,5.06 -8.42,10.01 -13.67,15.97 -13.29,15.09 -27.32,41.87 -27.32,64.56zm-2329.53 11.85c0,38.3 8.9,74.92 34.78,98.6 29.38,26.88 65.7,31.81 104.52,31.81 26.26,0 75.33,-15.02 94.04,-30.44 28.74,-23.7 51.13,-53.51 61.93,-89.23 3.55,-11.76 4.46,-9.64 8.87,-17.8 11.37,-21.03 10.03,-108.68 10.03,-141.13 0,-16.06 -20.74,-11.86 -41.49,-11.86 -28.46,0 -117.65,12.44 -139.35,20.7 -35.65,13.57 -26.67,6.98 -58.32,24.67 -7.36,4.11 -9.95,4.83 -17.03,9.64 -34.33,23.31 -57.98,62.7 -57.98,105.03z"/>
  </g>
 </g>
</svg>
